<svg width="1330" height="1330" viewBox="0 0 1330 1330" fill="none" xmlns="http://www.w3.org/2000/svg">
<path d="M698.2 841.97C697.489 844.853 695.823 847.41 693.474 849.226C691.124 851.042 688.229 852.009 685.26 851.97C688.19 851.86 691.013 850.838 693.333 849.045C695.654 847.251 697.355 844.778 698.2 841.97Z" fill="url(#paint0_linear_1831_4730)"/>
<path d="M259.75 377.49C259.664 377.385 259.555 377.303 259.43 377.25C259.59 377.25 259.75 377.29 259.75 377.49Z" fill="url(#paint1_linear_1831_4730)"/>
<path d="M1148.54 209.08L1092.59 271.71C986.46 156.13 834.06 83.79 664.84 83.79C448.65 83.79 260.09 201.96 160.09 377.21H259.39C259.514 377.263 259.624 377.345 259.71 377.45L271.71 411.13L319 486.31V486.46C319 486.74 319.28 486.74 319.55 486.74H813.23C815.907 486.739 818.545 487.382 820.921 488.616C823.297 489.849 825.341 491.636 826.881 493.826C828.421 496.016 829.411 498.545 829.768 501.198C830.124 503.851 829.837 506.551 828.93 509.07L827.79 512.3H511.71C445.01 512.3 417.4 539.24 417.4 580.66C417.4 618.44 443.4 643.77 499.88 643.77H619.52C635.61 643.77 642.87 648.34 642.87 659.55C642.87 671.02 635.61 675.64 619.52 675.64H347.19L291.85 520.94L279.78 486.74L232.21 411.37C232.066 411.243 231.889 411.159 231.7 411.13H148.7C146.658 411.136 144.63 410.798 142.7 410.13C110.478 476.126 91.1329 547.659 85.7 620.9C84.6199 635.42 83.8799 650.03 83.8799 664.82C83.8799 678.23 84.4999 691.49 85.3899 704.68C88.7699 754.37 103.39 802.32 118.46 847.81L154.8 938.59L53.97 924.59C42.11 897.59 34.0401 876.59 25.8201 847.81C12.4259 801.153 4.19981 753.165 1.29004 704.71C0.510039 691.51 0 678.24 0 664.85C0 650.07 0.649854 635.46 1.59985 620.92H1.6499C24.2399 274.24 312.44 0 664.84 0C855.46 0 1027.33 80.39 1148.54 209.08Z" fill="url(#paint2_linear_1831_4730)"/>
<path d="M698.64 838.62V839.37C698.633 839.582 698.606 839.793 698.56 840C698.6 839.57 698.64 839.09 698.64 838.62Z" fill="url(#paint3_linear_1831_4730)"/>
<path d="M319.66 486.78C319.39 486.78 319.11 486.78 319.11 486.5V486.35C319.302 486.481 319.486 486.625 319.66 486.78Z" fill="#0B4AA9"/>
<path d="M807.39 569.53L747.39 736.78C747.39 736.78 747.39 736.86 747.39 736.9C745.162 743.05 741.094 748.366 735.739 752.123C730.384 755.88 724.002 757.897 717.46 757.9H379.18C378.089 757.88 376.997 757.92 375.91 758.02C375.366 758.048 374.825 758.114 374.29 758.22C374.21 758.22 374.09 758.22 374.02 758.22C373.95 758.22 373.78 758.22 373.66 758.29C372.727 758.457 371.806 758.681 370.9 758.96C370.259 759.124 369.628 759.324 369.01 759.56C368.642 759.655 368.283 759.785 367.94 759.95C367.234 760.182 366.548 760.473 365.89 760.82C365.738 760.847 365.593 760.901 365.46 760.98C364.86 761.25 364.27 761.57 363.72 761.88C363.246 762.093 362.796 762.358 362.38 762.67C361.626 763.109 360.901 763.597 360.21 764.13C359.51 764.584 358.842 765.085 358.21 765.63C357.819 765.94 357.449 766.274 357.1 766.63C356.75 766.94 356.43 767.26 356.1 767.63C355.748 767.945 355.414 768.278 355.1 768.63C354.79 768.98 354.51 769.3 354.2 769.69C354.2 769.69 354.12 769.77 354.12 769.81C353.556 770.415 353.041 771.063 352.58 771.75C352.383 771.945 352.221 772.171 352.1 772.42C351.63 773.05 351.24 773.68 350.84 774.31C350.44 774.94 349.97 775.85 349.58 776.64C349.345 777.074 349.134 777.522 348.95 777.98C348.75 778.45 348.51 778.92 348.32 779.44C348.24 779.75 348.08 780.11 348 780.44C347.739 781.093 347.515 781.761 347.33 782.44C347.339 782.459 347.343 782.48 347.343 782.5C347.343 782.521 347.339 782.541 347.33 782.56C347.1 783.47 346.86 784.42 346.7 785.4C346.508 786.391 346.378 787.393 346.31 788.4C346.093 790.817 346.13 793.251 346.42 795.66C348.59 813.01 364.61 825.04 382 825.04H685.26C687.952 825.032 690.582 825.845 692.8 827.37C693.521 827.87 694.191 828.439 694.8 829.07C697.296 831.649 698.685 835.101 698.67 838.69C698.67 839.17 698.67 839.64 698.59 840.07C698.556 840.43 698.503 840.787 698.43 841.14C698.382 841.447 698.315 841.751 698.23 842.05C697.387 844.859 695.686 847.334 693.365 849.127C691.044 850.92 688.221 851.942 685.29 852.05H447.97V852.33H382.97C351.69 852.33 323.09 830.12 319.35 799.12C318.926 795.825 318.779 792.5 318.91 789.18C318.91 788.59 318.91 787.96 319.03 787.37C319.03 786.42 319.15 785.43 319.27 784.49C319.35 783.89 319.42 783.3 319.5 782.67C319.74 780.98 320.05 779.32 320.5 777.67C320.62 777 320.81 776.37 320.97 775.74C323.429 766.555 328.024 758.082 334.38 751.01C334.82 750.5 335.29 750.01 335.76 749.51C336.23 749.01 336.71 748.51 337.22 748.05C337.73 747.59 338.22 747.05 338.72 746.63C342.114 743.506 345.863 740.79 349.89 738.54C350.52 738.19 351.15 737.83 351.82 737.54L352.25 737.3C353.12 736.87 353.99 736.47 354.89 736.08C361.199 733.506 367.957 732.218 374.77 732.29H614.28C681.28 732.29 708.59 705.35 708.59 660.29C708.59 620.21 679.68 600.17 626.11 600.17H506.46C490.68 600.17 483.11 595.87 483.11 584.71C483.11 573.55 490.68 569.6 506.46 569.6L807.39 569.53Z" fill="url(#paint4_linear_1831_4730)"/>
<path d="M471.98 897.64C472.44 899.695 472.675 901.794 472.68 903.9C472.538 911.666 469.353 919.065 463.811 924.506C458.268 929.948 450.812 932.996 443.045 932.996C435.278 932.996 427.822 929.948 422.28 924.506C416.738 919.065 413.553 911.666 413.41 903.9C413.422 901.84 413.66 899.788 414.12 897.78L414.26 897.07C415.341 892.103 417.802 887.541 421.36 883.91C424.069 880.85 427.397 878.4 431.125 876.725C434.852 875.049 438.893 874.185 442.98 874.19C446.995 874.158 450.972 874.977 454.648 876.592C458.325 878.207 461.618 880.582 464.31 883.56C468.044 887.197 470.637 891.843 471.77 896.93L471.98 897.64Z" fill="url(#paint5_linear_1831_4730)"/>
<path d="M631.46 897.35C631.995 899.491 632.254 901.692 632.23 903.9C632.23 911.732 629.119 919.243 623.581 924.781C618.043 930.319 610.532 933.43 602.7 933.43C594.868 933.43 587.357 930.319 581.819 924.781C576.281 919.243 573.17 911.732 573.17 903.9C573.204 896.442 576.063 889.274 581.17 883.84C583.872 880.798 587.19 878.364 590.903 876.701C594.617 875.037 598.641 874.181 602.71 874.19C606.726 874.152 610.704 874.968 614.381 876.583C618.058 878.199 621.351 880.577 624.04 883.56C627.802 887.337 630.38 892.129 631.46 897.35Z" fill="url(#paint6_linear_1831_4730)"/>
<path d="M787.71 658.299L829.42 704.799L843.26 720.23L1032.88 931.62H1145.46L899.46 657.37L1161.86 363.63C1213.43 448.741 1242.27 545.675 1245.62 645.135C1248.96 744.596 1226.69 843.248 1180.95 931.63C1176.64 939.93 1172.21 948.15 1167.53 956.22C1153.07 981.101 1136.8 1004.88 1118.83 1027.36C1012.36 1160.51 848.67 1245.94 664.9 1245.94C452.05 1245.94 264.05 1131.41 162.9 960.74L60.5801 944.74C169.38 1163.42 404.13 1329.74 664.89 1329.74C870.09 1329.74 1053.56 1236.74 1175.45 1090.61L1175.39 1090.54H1175.48C1276.53 969.694 1331.29 816.838 1329.95 659.318C1328.62 501.797 1271.29 349.889 1168.21 230.77L1111.95 293.77L843.13 594.61L819.55 621.02L787.71 656.71" fill="#1C2C3C"/>
<path d="M377.12 1025.95L378.99 1015.95H396.46L392.72 1035.05C392.438 1037 391.728 1038.86 390.64 1040.5C390.089 1041.16 389.387 1041.68 388.593 1042.01C387.799 1042.34 386.937 1042.47 386.08 1042.39L338.69 1042.5C337.332 1042.58 335.977 1042.29 334.77 1041.66C333.87 1041.1 333.41 1039.98 333.41 1038.3C333.429 1037.59 333.516 1036.89 333.67 1036.2L333.75 1035.68L335.96 1023.68C336.207 1021.78 336.862 1019.95 337.88 1018.33C338.395 1017.68 339.065 1017.16 339.83 1016.83C340.595 1016.5 341.431 1016.37 342.26 1016.44H352.46L351.36 1022L350.67 1026L377.12 1025.95ZM398.48 968.87C399.836 968.791 401.187 969.081 402.39 969.71C403.3 970.27 403.75 971.39 403.75 973.07C403.735 973.777 403.652 974.48 403.5 975.17L403.41 975.69L401.2 987.69C400.95 989.592 400.299 991.419 399.29 993.05C398.773 993.705 398.101 994.22 397.334 994.548C396.567 994.876 395.731 995.008 394.9 994.93H384.69L385.8 989.37L386.48 985.37L360.1 985.47L357.63 998.69L393.46 998.59C394.849 998.525 396.23 998.833 397.46 999.48C397.984 999.844 398.4 1000.34 398.662 1000.92C398.925 1001.51 399.024 1002.15 398.95 1002.78C398.939 1003.49 398.852 1004.19 398.69 1004.88L397.16 1012.33L355.16 1012.44H343.85C342.474 1012.49 341.112 1012.15 339.93 1011.44C339.42 1011.05 339.02 1010.54 338.768 1009.95C338.515 1009.36 338.42 1008.72 338.49 1008.08C338.493 1007.41 338.577 1006.73 338.74 1006.08L340.19 998.63L344.44 976.28C344.729 974.332 345.442 972.472 346.53 970.83C347.078 970.169 347.778 969.651 348.571 969.322C349.364 968.992 350.225 968.861 351.08 968.94L398.48 968.87Z" fill="#1C2C3C"/>
<path d="M564.52 968.98C566.651 968.94 568.783 969.044 570.9 969.29C572.081 969.391 573.192 969.892 574.05 970.71C574.8 971.681 575.157 972.898 575.05 974.12C574.97 975.883 574.743 977.635 574.37 979.36L570.97 997.62L568.67 1009.79C568.22 1012.24 567.36 1013.92 566.12 1014.79C564.72 1015.74 563.037 1016.19 561.35 1016.05L525.19 1015.94L527.4 1003.88C527.847 1001.43 528.697 999.76 529.95 998.88C531.35 997.928 533.033 997.484 534.72 997.62H555.46L558.01 984.3L527.12 984.19L516.66 1042.42H499.21L512.57 968.98H564.48H564.52Z" fill="#1C2C3C"/>
<path d="M652.22 968.98C654.351 968.94 656.483 969.043 658.6 969.29C659.781 969.391 660.892 969.892 661.75 970.71C662.5 971.681 662.857 972.898 662.75 974.12C662.675 975.883 662.448 977.636 662.07 979.36L658.67 997.62L656.37 1009.79C655.917 1012.24 655.066 1013.91 653.82 1014.79C652.42 1015.74 650.737 1016.19 649.05 1016.05L612.89 1015.94L615.1 1003.88C615.55 1001.43 616.41 999.75 617.65 998.88C619.05 997.928 620.733 997.484 622.42 997.62H643.18L645.73 984.3L614.85 984.19L604.38 1042.42H586.96L600.32 968.98H652.22Z" fill="#1C2C3C"/>
<path d="M692.1 1042.42H674.66L688.02 968.98H705.29L692.1 1042.42ZM703.59 995.521C707.91 995.942 712.25 996.119 716.59 996.05C717.706 996.108 718.821 995.922 719.857 995.504C720.894 995.086 721.826 994.447 722.59 993.63C724.03 992.03 725.07 989.58 725.69 986.29L728.84 968.98H746.03L742.37 989.98C741.29 996.28 739.46 1000.7 736.88 1003.25C735.633 1004.5 734.137 1005.48 732.489 1006.13C730.841 1006.77 729.077 1007.06 727.31 1006.98C733.31 1007.12 736.31 1011.14 736.31 1019.05C736.281 1021.8 735.996 1024.54 735.46 1027.23L732.74 1042.44H715.46L718.95 1023.77C719.111 1022.9 719.198 1022.02 719.21 1021.14C719.253 1020.42 719.139 1019.7 718.875 1019.03C718.61 1018.36 718.203 1017.76 717.68 1017.26C716.647 1016.35 714.887 1015.79 712.4 1015.58L700.06 1014.74L703.59 995.521Z" fill="#1C2C3C"/>
<path d="M796.57 983.88C792.71 983.88 789.786 985.033 787.8 987.34C785.611 990.112 784.175 993.401 783.63 996.89L775.38 1042.43H757.94L766.36 996.89C769.82 977.997 779.52 968.693 795.46 968.98H813.16L810.44 983.88H796.57ZM816.48 968.98H833.75L820.56 1042.43H803.12L807.88 1016.09H783.88L785.88 1003.92C786.28 1001.47 787.017 999.8 788.09 998.92C789.273 997.992 790.761 997.543 792.26 997.66L811.26 997.77L816.48 968.98Z" fill="#1C2C3C"/>
<path d="M910.9 968.98C913.034 968.94 915.169 969.044 917.29 969.29C918.478 969.387 919.597 969.888 920.46 970.71C921.21 971.681 921.567 972.898 921.46 974.12C921.381 975.883 921.15 977.636 920.77 979.36L917.37 997.62L915.07 1009.79C914.616 1012.24 913.767 1013.91 912.52 1014.79C911.12 1015.74 909.437 1016.19 907.75 1016.05L871.59 1015.94L873.8 1003.88C874.26 1001.43 875.113 999.76 876.36 998.88C877.755 997.927 879.436 997.482 881.12 997.62H901.88L904.44 984.3L873.55 984.19L863.08 1042.42H845.64L859 968.98H910.9ZM885.97 1019.24H903.76L906.99 1042.42H894.14C893.318 1042.49 892.49 1042.35 891.743 1042C890.996 1041.65 890.357 1041.1 889.89 1040.42C888.906 1038.68 888.321 1036.74 888.18 1034.75L885.97 1019.24Z" fill="#1C2C3C"/>
<path d="M933.34 986.08L936.34 968.98H996.34L994.34 979.891C993.887 982.337 993.037 984.004 991.79 984.891C990.391 985.843 988.706 986.285 987.02 986.141L933.34 986.08ZM962.78 1042.42H945.34L954.78 989.96H972.06L962.78 1042.42Z" fill="#1C2C3C"/>
<path d="M470.01 968.93H487.37L476.65 1025.93L474.95 1035.06C474.662 1037.01 473.948 1038.87 472.86 1040.51C472.312 1041.17 471.612 1041.69 470.819 1042.02C470.026 1042.35 469.165 1042.48 468.31 1042.4L420.91 1042.51C419.555 1042.59 418.203 1042.3 417 1041.67C416.09 1041.11 415.64 1039.99 415.64 1038.31C415.655 1037.6 415.739 1036.9 415.89 1036.21L417.76 1026.03L459.29 1025.93L470.01 968.93ZM428.32 968.93H445.59L435.72 1022.23H418.36L428.32 968.93Z" fill="#1C2C3C"/>
<defs>
<linearGradient id="paint0_linear_1831_4730" x1="685.26" y1="846.98" x2="698.2" y2="846.98" gradientUnits="userSpaceOnUse">
<stop stop-color="#FE5127"/>
<stop offset="1" stop-color="#FF060D"/>
</linearGradient>
<linearGradient id="paint1_linear_1831_4730" x1="259.43" y1="377.37" x2="259.75" y2="377.37" gradientUnits="userSpaceOnUse">
<stop stop-color="#FE5127"/>
<stop offset="1" stop-color="#FF060D"/>
</linearGradient>
<linearGradient id="paint2_linear_1831_4730" x1="0" y1="469.31" x2="1148.54" y2="469.31" gradientUnits="userSpaceOnUse">
<stop stop-color="#6303E2"/>
<stop offset="1" stop-color="#8B00A7"/>
</linearGradient>
<linearGradient id="paint3_linear_1831_4730" x1="698.56" y1="839.31" x2="698.64" y2="839.31" gradientUnits="userSpaceOnUse">
<stop stop-color="#FE5127"/>
<stop offset="1" stop-color="#FF060D"/>
</linearGradient>
<linearGradient id="paint4_linear_1831_4730" x1="318.91" y1="710.9" x2="807.39" y2="710.9" gradientUnits="userSpaceOnUse">
<stop stop-color="#6303E2"/>
<stop offset="1" stop-color="#8B00A7"/>
</linearGradient>
<linearGradient id="paint5_linear_1831_4730" x1="413.41" y1="903.82" x2="472.68" y2="903.82" gradientUnits="userSpaceOnUse">
<stop stop-color="#6303E2"/>
<stop offset="1" stop-color="#8B00A7"/>
</linearGradient>
<linearGradient id="paint6_linear_1831_4730" x1="573.13" y1="903.82" x2="632.19" y2="903.82" gradientUnits="userSpaceOnUse">
<stop stop-color="#6303E2"/>
<stop offset="1" stop-color="#8B00A7"/>
</linearGradient>
</defs>
</svg>
